<mxfile host="Electron" agent="Mozilla/5.0 (X11; Linux x86_64) AppleWebKit/537.36 (KHTML, like Gecko) draw.io/26.2.2 Chrome/134.0.6998.178 Electron/35.1.2 Safari/537.36" version="26.2.2">
  <diagram name="Page-1" id="MI8lY72-LK8SvlarRPz7">
    <mxGraphModel dx="657" dy="469" grid="1" gridSize="10" guides="1" tooltips="1" connect="1" arrows="1" fold="1" page="1" pageScale="1" pageWidth="640" pageHeight="440" math="0" shadow="0">
      <root>
        <mxCell id="0" />
        <mxCell id="1" parent="0" />
        <mxCell id="0-Ndp78_rGKsbEgcbSae-8" style="edgeStyle=orthogonalEdgeStyle;rounded=0;orthogonalLoop=1;jettySize=auto;html=1;exitX=0.5;exitY=1;exitDx=0;exitDy=0;entryX=0.5;entryY=0;entryDx=0;entryDy=0;" parent="1" source="0-Ndp78_rGKsbEgcbSae-5" target="0-Ndp78_rGKsbEgcbSae-7" edge="1">
          <mxGeometry relative="1" as="geometry" />
        </mxCell>
        <mxCell id="0-Ndp78_rGKsbEgcbSae-5" value="&lt;font face=&quot;Hack&quot;&gt;main:&lt;/font&gt;&lt;div&gt;&lt;font face=&quot;Hack&quot;&gt;Truck my_truck(..., &lt;font style=&quot;background-color: rgb(108, 142, 191); color: rgb(0, 51, 102);&quot;&gt;...&lt;/font&gt;, &lt;font style=&quot;background-color: rgb(151, 208, 119); color: rgb(0, 102, 0);&quot;&gt;...&lt;/font&gt;)&lt;/font&gt;&lt;/div&gt;" style="shape=parallelogram;perimeter=parallelogramPerimeter;whiteSpace=wrap;html=1;fixedSize=1;" parent="1" vertex="1">
          <mxGeometry x="40" y="120" width="240" height="60" as="geometry" />
        </mxCell>
        <mxCell id="0-Ndp78_rGKsbEgcbSae-10" style="edgeStyle=orthogonalEdgeStyle;rounded=0;orthogonalLoop=1;jettySize=auto;html=1;exitX=0.5;exitY=1;exitDx=0;exitDy=0;entryX=0.5;entryY=0;entryDx=0;entryDy=0;" parent="1" source="0-Ndp78_rGKsbEgcbSae-7" target="0-Ndp78_rGKsbEgcbSae-9" edge="1">
          <mxGeometry relative="1" as="geometry" />
        </mxCell>
        <mxCell id="0-Ndp78_rGKsbEgcbSae-7" value="&lt;font face=&quot;Hack&quot;&gt;Truck:&lt;/font&gt;&lt;div&gt;&lt;font face=&quot;Hack&quot;&gt;Car(..., &lt;font style=&quot;background-color: rgb(108, 142, 191); color: rgb(0, 51, 102);&quot;&gt;...&lt;/font&gt;)&lt;/font&gt;&lt;/div&gt;" style="shape=parallelogram;perimeter=parallelogramPerimeter;whiteSpace=wrap;html=1;fixedSize=1;" parent="1" vertex="1">
          <mxGeometry x="90" y="200" width="140" height="60" as="geometry" />
        </mxCell>
        <mxCell id="0-Ndp78_rGKsbEgcbSae-9" value="&lt;font face=&quot;Hack&quot;&gt;Car:&lt;/font&gt;&lt;div&gt;&lt;font face=&quot;Hack&quot;&gt;Vehicle(...)&lt;/font&gt;&lt;/div&gt;" style="shape=parallelogram;perimeter=parallelogramPerimeter;whiteSpace=wrap;html=1;fixedSize=1;" parent="1" vertex="1">
          <mxGeometry x="90" y="280" width="140" height="60" as="geometry" />
        </mxCell>
        <mxCell id="0-Ndp78_rGKsbEgcbSae-11" value="&lt;font face=&quot;Hack&quot;&gt;order of calls&lt;/font&gt;" style="shape=process;whiteSpace=wrap;html=1;backgroundOutline=1;" parent="1" vertex="1">
          <mxGeometry x="100" y="40" width="140" height="30" as="geometry" />
        </mxCell>
        <mxCell id="0-Ndp78_rGKsbEgcbSae-12" value="&lt;font face=&quot;Hack&quot;&gt;visualization of data passing&lt;/font&gt;" style="shape=process;whiteSpace=wrap;html=1;backgroundOutline=1;" parent="1" vertex="1">
          <mxGeometry x="320" y="40" width="280" height="30" as="geometry" />
        </mxCell>
        <mxCell id="0-Ndp78_rGKsbEgcbSae-21" style="edgeStyle=orthogonalEdgeStyle;rounded=0;orthogonalLoop=1;jettySize=auto;html=1;exitX=0.5;exitY=1;exitDx=0;exitDy=0;entryX=0.5;entryY=0;entryDx=0;entryDy=0;" parent="1" source="0-Ndp78_rGKsbEgcbSae-15" target="0-Ndp78_rGKsbEgcbSae-1" edge="1">
          <mxGeometry relative="1" as="geometry" />
        </mxCell>
        <mxCell id="0-Ndp78_rGKsbEgcbSae-15" value="data from main:&lt;div&gt;&lt;span style=&quot;font-family: Hack;&quot;&gt;(...,&amp;nbsp;&lt;/span&gt;&lt;font style=&quot;font-family: Hack; color: rgb(0, 51, 102); background-color: rgb(153, 204, 255);&quot;&gt;...&lt;/font&gt;&lt;span style=&quot;font-family: Hack;&quot;&gt;,&amp;nbsp;&lt;/span&gt;&lt;font style=&quot;font-family: Hack; color: rgb(0, 102, 0); background-color: rgb(173, 215, 171);&quot;&gt;...&lt;/font&gt;&lt;font style=&quot;font-family: Hack; color: rgb(0, 0, 0);&quot;&gt;)&lt;/font&gt;&lt;/div&gt;" style="rounded=1;whiteSpace=wrap;html=1;" parent="1" vertex="1">
          <mxGeometry x="400" y="100" width="120" height="60" as="geometry" />
        </mxCell>
        <mxCell id="0-Ndp78_rGKsbEgcbSae-20" value="" style="group" parent="1" vertex="1" connectable="0">
          <mxGeometry x="340" y="200" width="240" height="200" as="geometry" />
        </mxCell>
        <mxCell id="0-Ndp78_rGKsbEgcbSae-1" value="&lt;font face=&quot;Hack&quot;&gt;&lt;u&gt;Truck&lt;/u&gt;&lt;/font&gt;&lt;div&gt;&lt;font face=&quot;Hack&quot;&gt;save data: (...),&lt;/font&gt;&lt;/div&gt;&lt;div&gt;&lt;font face=&quot;Hack&quot;&gt;pass data: (&lt;span style=&quot;background-color: light-dark(#ffffff, var(--ge-dark-color, #121212));&quot;&gt;&lt;font style=&quot;color: rgb(0, 0, 0);&quot;&gt;...&lt;/font&gt;&lt;/span&gt;, &lt;font style=&quot;background-color: rgb(153, 204, 255); color: rgb(0, 51, 102);&quot;&gt;...&lt;/font&gt;)&lt;/font&gt;&lt;/div&gt;" style="rounded=1;whiteSpace=wrap;html=1;fillColor=#d5e8d4;strokeColor=#82b366;spacingTop=-150;" parent="0-Ndp78_rGKsbEgcbSae-20" vertex="1">
          <mxGeometry width="240" height="200" as="geometry" />
        </mxCell>
        <mxCell id="0-Ndp78_rGKsbEgcbSae-18" value="" style="group" parent="0-Ndp78_rGKsbEgcbSae-20" vertex="1" connectable="0">
          <mxGeometry x="30" y="50" width="180" height="140" as="geometry" />
        </mxCell>
        <mxCell id="0-Ndp78_rGKsbEgcbSae-13" value="&lt;font face=&quot;Hack&quot;&gt;&lt;u&gt;Car&lt;/u&gt;&lt;/font&gt;&lt;div&gt;&lt;font face=&quot;Hack&quot;&gt;save data: (&lt;font style=&quot;color: rgb(0, 51, 102);&quot;&gt;...&lt;/font&gt;),&lt;/font&gt;&lt;/div&gt;&lt;div&gt;&lt;font face=&quot;Hack&quot;&gt;pass data: (&lt;span style=&quot;background-color: light-dark(#ffffff, var(--ge-dark-color, #121212));&quot;&gt;...&lt;/span&gt;)&lt;/font&gt;&lt;/div&gt;" style="rounded=1;whiteSpace=wrap;html=1;fillColor=#dae8fc;strokeColor=#6c8ebf;spacingTop=-80;" parent="0-Ndp78_rGKsbEgcbSae-18" vertex="1">
          <mxGeometry width="180" height="140" as="geometry" />
        </mxCell>
        <mxCell id="0-Ndp78_rGKsbEgcbSae-14" value="&lt;font face=&quot;Hack&quot;&gt;&lt;u&gt;Vehicle&lt;/u&gt;&lt;/font&gt;&lt;div&gt;&lt;font face=&quot;Hack&quot;&gt;save data: (...)&lt;/font&gt;&lt;/div&gt;" style="rounded=1;whiteSpace=wrap;html=1;" parent="0-Ndp78_rGKsbEgcbSae-18" vertex="1">
          <mxGeometry x="30" y="60" width="120" height="60" as="geometry" />
        </mxCell>
        <mxCell id="0-Ndp78_rGKsbEgcbSae-17" value="" style="curved=1;endArrow=classic;html=1;rounded=0;entryX=1;entryY=0.25;entryDx=0;entryDy=0;" parent="0-Ndp78_rGKsbEgcbSae-18" target="0-Ndp78_rGKsbEgcbSae-14" edge="1">
          <mxGeometry width="50" height="50" relative="1" as="geometry">
            <mxPoint x="147" y="46" as="sourcePoint" />
            <mxPoint x="230" y="20" as="targetPoint" />
            <Array as="points">
              <mxPoint x="170" y="50" />
              <mxPoint x="170" y="70" />
            </Array>
          </mxGeometry>
        </mxCell>
        <mxCell id="0-Ndp78_rGKsbEgcbSae-19" value="" style="curved=1;endArrow=classic;html=1;rounded=0;entryX=0.996;entryY=0.165;entryDx=0;entryDy=0;entryPerimeter=0;" parent="0-Ndp78_rGKsbEgcbSae-20" target="0-Ndp78_rGKsbEgcbSae-13" edge="1">
          <mxGeometry width="50" height="50" relative="1" as="geometry">
            <mxPoint x="195" y="40" as="sourcePoint" />
            <mxPoint x="203" y="82" as="targetPoint" />
            <Array as="points">
              <mxPoint x="220" y="40" />
              <mxPoint x="230" y="70" />
            </Array>
          </mxGeometry>
        </mxCell>
        <mxCell id="0-Ndp78_rGKsbEgcbSae-22" value="" style="endArrow=none;dashed=1;html=1;dashPattern=1 3;strokeWidth=2;rounded=0;strokeColor=#A2A2A2;" parent="1" edge="1">
          <mxGeometry width="50" height="50" relative="1" as="geometry">
            <mxPoint x="299" y="400" as="sourcePoint" />
            <mxPoint x="299" y="40" as="targetPoint" />
          </mxGeometry>
        </mxCell>
      </root>
    </mxGraphModel>
  </diagram>
</mxfile>
